<svg xmlns="http://www.w3.org/2000/svg" width="512" height="512" viewBox="0 0 512 512">
  <rect width="512" height="512" rx="102" fill="#D85A30"/>
  <path d="M128 100 L256 52 L384 100 L384 262 C384 352 316 408 256 442 C196 408 128 352 128 262Z" fill="rgba(255,255,255,0.15)" stroke="white" stroke-width="8"/>
  <path d="M192 228 C192 184 222 150 256 150" fill="none" stroke="white" stroke-width="12" stroke-linecap="round"/>
  <path d="M160 250 C160 182 205 128 256 128" fill="none" stroke="white" stroke-width="9" stroke-linecap="round" opacity="0.5"/>
  <path d="M224 210 C224 194 239 178 256 178" fill="none" stroke="white" stroke-width="14" stroke-linecap="round"/>
  <circle cx="256" cy="252" r="18" fill="white"/>
  <path d="M256 298 L256 344" stroke="white" stroke-width="12" stroke-linecap="round"/>
  <path d="M234 332 L256 354 L278 332" fill="none" stroke="white" stroke-width="8" stroke-linecap="round" stroke-linejoin="round"/>
</svg>
