<svg xmlns="http://www.w3.org/2000/svg" width="1200" height="200" viewBox="0 0 1200 200">
  <path d="M30 24 L100 4 L170 24 L170 132 C170 188 126 224 100 244 C74 224 30 188 30 132Z" fill="#D85A30" fill-opacity="0.12" stroke="#D85A30" stroke-width="5"/>
  <path d="M65 96 C65 68 82 52 100 52" fill="none" stroke="#D85A30" stroke-width="7" stroke-linecap="round"/>
  <path d="M50 108 C50 64 72 38 100 38" fill="none" stroke="#D85A30" stroke-width="5" stroke-linecap="round" opacity="0.55"/>
  <path d="M80 84 C80 74 89 64 100 64" fill="none" stroke="#D85A30" stroke-width="9" stroke-linecap="round"/>
  <circle cx="100" cy="108" r="10" fill="#D85A30"/>
  <path d="M100 134 L100 164" stroke="#D85A30" stroke-width="7" stroke-linecap="round"/>
  <path d="M86 156 L100 170 L114 156" fill="none" stroke="#D85A30" stroke-width="5" stroke-linecap="round" stroke-linejoin="round"/>
  <text x="210" y="120" fill="#E8E6DF" font-family="'DM Sans', -apple-system, 'Segoe UI', sans-serif" font-size="72" font-weight="500">Deploy<tspan fill="#D85A30">Whisper</tspan></text>
  <text x="210" y="165" fill="#5F5E5A" font-family="'DM Sans', -apple-system, 'Segoe UI', sans-serif" font-size="24" letter-spacing="0.15em">PRE-DEPLOYMENT RISK INTELLIGENCE</text>
</svg>
