<svg xmlns="http://www.w3.org/2000/svg" width="512" height="560" viewBox="0 0 512 560">
  <path d="M163 105 L256 68 L349 105 L349 220 C349 296 296 340 256 364 C216 340 163 296 163 220Z" fill="#D85A30" fill-opacity="0.1" stroke="#D85A30" stroke-width="6"/>
  <path d="M215 188 C215 160 234 142 256 142" fill="none" stroke="#D85A30" stroke-width="9" stroke-linecap="round"/>
  <path d="M198 202 C198 150 224 120 256 120" fill="none" stroke="#D85A30" stroke-width="7" stroke-linecap="round" opacity="0.55"/>
  <path d="M236 176 C236 164 245 154 256 154" fill="none" stroke="#D85A30" stroke-width="11" stroke-linecap="round"/>
  <circle cx="256" cy="205" r="12" fill="#D85A30"/>
  <path d="M256 234 L256 268" stroke="#D85A30" stroke-width="8" stroke-linecap="round"/>
  <path d="M242 258 L256 272 L270 258" fill="none" stroke="#D85A30" stroke-width="6" stroke-linecap="round" stroke-linejoin="round"/>
  <text x="256" y="430" text-anchor="middle" fill="#1A1A18" font-family="'DM Sans', -apple-system, 'Segoe UI', sans-serif" font-size="52" font-weight="500">Deploy<tspan fill="#D85A30">Whisper</tspan></text>
  <text x="256" y="478" text-anchor="middle" fill="#88877F" font-family="'DM Sans', -apple-system, 'Segoe UI', sans-serif" font-size="16" letter-spacing="0.15em">PRE-DEPLOYMENT RISK INTELLIGENCE</text>
</svg>
